# xmcd CD database file
#
# Track frame offsets:
#	150
#	18547
#	43173
#
# Disc length: 792 seconds
#
# Revision: 1
# Processed by: cddbd v1.5.2PL0 Copyright (c) Steve Scherf et al.
# Submitted via: CDex 1.60beta1-cs1
#
DISCID=20031603
DTITLE=西野カナ - (S) 君に会いたくなるから
DYEAR=2009
DGENRE=JPop
TTITLE0=君に会いたくなるから
TTITLE1=失恋モード feat. WISE
TTITLE2=Again
EXTD=YEAR: 2009
EXTT0=
EXTT1=
EXTT2=
PLAYORDER=
